<svg xmlns="http://www.w3.org/2000/svg" width="32" height="32" id="calendar"><g transform="translate(553 -1145.362)"><rect width="24" height="19" x="-549" y="1155.362" fill="#cad1d8" rx="1" ry="1"></rect><rect width="24" height="6.031" x="-549" y="1150.362" fill="#25b39e" color="#000" overflow="visible" rx="1" ry="1" style="isolation:auto;mix-blend-mode:normal"></rect><rect width="2" height="5" x="-545" y="1148.362" fill="#bbc4c5" color="#000" overflow="visible" rx="1" ry="1" style="isolation:auto;mix-blend-mode:normal"></rect><rect style="isolation:auto;mix-blend-mode:normal" width="2" height="5" x="-531" y="1148.362" fill="#bbc4c5" color="#000" overflow="visible" rx="1" ry="1"></rect><path fill="#576d7e" color="#000" overflow="visible" style="isolation:auto;mix-blend-mode:normal" d="M-547 1158.393h2v2h-2z"></path><path style="isolation:auto;mix-blend-mode:normal" fill="#34485c" d="M-544 1158.393h2v2h-2zM-541 1158.393h2v2h-2zM-538 1158.393h2v2h-2zM-535 1158.393h2v2h-2zM-532 1158.393h2v2h-2zM-529 1158.393h2v2h-2zM-547 1161.393h2v2h-2z" color="#000" overflow="visible"></path><path fill="#25b39e" color="#000" overflow="visible" style="isolation:auto;mix-blend-mode:normal" d="M-544 1161.393h2v2h-2z"></path><path style="isolation:auto;mix-blend-mode:normal" fill="#34485c" d="M-541 1161.393h2v2h-2zM-538 1161.393h2v2h-2zM-535 1161.393h2v2h-2zM-532 1161.393h2v2h-2zM-529 1161.393h2v2h-2zM-547 1164.393h2v2h-2zM-544 1164.393h2v2h-2zM-541 1164.393h2v2h-2z" color="#000" overflow="visible"></path><path style="isolation:auto;mix-blend-mode:normal" fill="#25b39e" d="M-538 1164.393h2v2h-2zM-535 1164.393h2v2h-2z" color="#000" overflow="visible"></path><path style="isolation:auto;mix-blend-mode:normal" fill="#34485c" d="M-532 1164.393h2v2h-2zM-529 1164.393h2v2h-2z" color="#000" overflow="visible"></path><path style="isolation:auto;mix-blend-mode:normal" fill="#25b39e" d="M-547 1167.393h2v2h-2z" color="#000" overflow="visible"></path><path fill="#34485c" color="#000" overflow="visible" style="isolation:auto;mix-blend-mode:normal" d="M-544 1167.393h2v2h-2zM-541 1167.393h2v2h-2zM-538 1167.393h2v2h-2zM-535 1167.393h2v2h-2zM-532 1167.393h2v2h-2zM-529 1167.393h2v2h-2zM-547 1170.393h2v2h-2zM-544 1170.393h2v2h-2z"></path><path fill="#25b39e" color="#000" overflow="visible" style="isolation:auto;mix-blend-mode:normal" d="M-541 1170.393h2v2h-2z"></path><path style="isolation:auto;mix-blend-mode:normal" fill="#34485c" d="M-538 1170.393h2v2h-2z" color="#000" overflow="visible"></path><path fill="#576d7e" color="#000" overflow="visible" style="isolation:auto;mix-blend-mode:normal" d="M-535 1170.393h2v2h-2zM-532 1170.393h2v2h-2zM-529 1170.393h2v2h-2z"></path><rect style="isolation:auto;mix-blend-mode:normal" width="24" height="2.031" x="-549" y="1154.362" fill="#25b39e" color="#000" overflow="visible" rx="0" ry="0"></rect></g></svg>