<svg width="17" height="18" viewBox="0 0 17 18" fill="none" xmlns="http://www.w3.org/2000/svg">
<g clip-path="url(#clip0_1945_5266)">
<path d="M12.9217 10.9053H14.5008C15.3709 10.9053 16.0799 10.1318 16.0799 9.18262C16.0799 8.2334 15.3709 7.45996 14.5008 7.45996H12.9217V10.9053ZM4.07227 10.9053H2.49316C1.62305 10.9053 0.914062 10.1318 0.914062 9.18262C0.914062 8.2334 1.62305 7.45996 2.49316 7.45996H4.07227V10.9053Z" fill="#F29F18"/>
<path d="M8.4999 16.7904C5.63818 16.7904 3.31787 14.2592 3.31787 11.1373V7.20684C3.31787 4.08496 5.63818 1.55371 8.4999 1.55371C11.3616 1.55371 13.6819 4.08496 13.6819 7.20684V11.1373C13.6819 14.2592 11.3616 16.7904 8.4999 16.7904Z" fill="#F4BC62"/>
<path d="M8.48691 1.54688H8.49336C8.22266 1.54688 7.96484 1.575 7.70703 1.61719C10.1949 2.03203 12.1092 4.38047 12.1092 7.20703V11.1375C12.1092 13.9711 10.2014 16.3195 7.71348 16.7344C7.97129 16.7766 8.23555 16.8047 8.4998 16.8047H8.48691C11.3486 16.8047 13.6561 14.2594 13.6561 11.1375V7.20703C13.6561 4.08516 11.3486 1.54688 8.48691 1.54688Z" fill="#F29F18"/>
<path d="M14.1913 8.83838H14.823V9.52744H14.1913V8.83838ZM2.17725 8.83838H2.80889V9.52744H2.17725V8.83838Z" fill="#734B0B"/>
<path d="M4.45254 1.17432V6.1665C4.45254 6.88369 3.91758 7.46729 3.26016 7.46729H2.46094V3.33994C2.46738 2.14463 3.35684 1.17432 4.45254 1.17432ZM12.5221 1.17432V6.1665C12.5221 6.88369 13.057 7.46729 13.7145 7.46729H14.5137V3.33994C14.5072 2.14463 13.6178 1.17432 12.5221 1.17432Z" fill="#595959"/>
<path d="M4.98096 0.344727H11.9935C13.3792 0.344727 14.5071 1.5752 14.5071 3.08691V6.24395H2.46729V3.08691C2.46729 1.5752 3.59521 0.344727 4.98096 0.344727Z" fill="#017068"/>
<path d="M5.59961 8.08594H7.21094V8.78906H5.59961V8.08594ZM6.88867 9.49219H7.5332V10.8281H6.88867V9.49219ZM9.78906 8.08594H11.4004V8.78906H9.78906V8.08594ZM9.4668 9.49219H10.1113V10.8281H9.4668V9.49219Z" fill="#595959"/>
<path d="M6.32812 12.5789L5.81894 12.9867L4.07871 10.3922L2.13867 7.50234C2.25469 7.47422 2.37715 7.45312 2.49961 7.45312H2.89277L4.07871 9.225L6.32812 12.5789ZM14.8682 7.50234L12.9281 10.3922L11.1879 12.9867L10.6787 12.5789L12.9281 9.225L14.1141 7.45312H14.5072C14.6297 7.45312 14.7521 7.47422 14.8682 7.50234Z" fill="#EBDEE5"/>
<path d="M3.38867 12.0654C3.79473 14.7443 5.92813 16.7904 8.4998 16.7904C11.0715 16.7904 13.2049 14.7443 13.6109 12.0654H3.38867Z" fill="#00BFB6"/>
<path d="M4.93584 0.344727H9.89873C11.2587 0.344727 12.3673 1.54707 12.3673 3.0377C12.3673 4.22598 11.4843 5.19629 10.3886 5.19629H2.46729V3.0377C2.46729 1.54707 3.56943 0.344727 4.93584 0.344727Z" fill="#00BFB6"/>
<path d="M8.15195 2.61553H4.96797C4.54902 2.61553 4.21387 2.2499 4.21387 1.79287C4.21387 1.33584 4.54902 0.970215 4.96797 0.970215H8.15195C8.5709 0.970215 8.90605 1.33584 8.90605 1.79287C8.89961 2.2499 8.56445 2.61553 8.15195 2.61553Z" fill="#3DCAC3"/>
<path d="M8.5 12.0654L8.8416 12.4381C8.95117 12.5576 8.95117 12.7545 8.8416 12.874L8.59668 13.1412C8.54512 13.1975 8.46777 13.2326 8.39687 13.2326H6.69531C6.54062 13.2326 6.41172 13.3732 6.41172 13.542V13.6123C6.41172 13.7811 6.54062 13.9217 6.69531 13.9217H10.2982C10.4529 13.9217 10.5818 14.0623 10.5818 14.2311C10.5818 14.3998 10.4529 14.5404 10.2982 14.5404H6.68887C6.53418 14.5404 6.40527 14.6811 6.40527 14.8498V14.9201C6.40527 15.0889 6.53418 15.2295 6.68887 15.2295H9.00918C9.08652 15.2295 9.15742 15.2646 9.20898 15.3209L9.23476 15.349C9.34433 15.4686 9.34433 15.6654 9.23476 15.785L8.58379 16.5232C8.53223 16.5795 8.5 16.6568 8.5 16.7412V16.7904C11.0717 16.7904 13.2051 14.7443 13.6111 12.0654H8.5Z" fill="#017068"/>
<path d="M8.17773 2.32031H8.82227V4.21875H8.17773V2.32031Z" fill="#F22E24"/>
<path d="M7.59766 2.95312H9.33789V3.65625H7.59766V2.95312Z" fill="#F22E24"/>
</g>
<defs>
<clipPath id="clip0_1945_5266">
<rect width="17" height="18" fill="white"/>
</clipPath>
</defs>
</svg>
