<svg width="398" height="407" viewBox="0 0 398 407" fill="none" xmlns="http://www.w3.org/2000/svg">
<circle cx="264.734" cy="158.651" r="5.9217" fill="#08AA6E"/>
<circle cx="82.4598" cy="71.446" r="5.21504" stroke="#08AA6E"/>
<circle cx="246.099" cy="318.71" r="4.3542" fill="#08AA6E" fill-opacity="0.68"/>
<circle cx="273.618" cy="336.127" r="2.61252" fill="#08AA6E" fill-opacity="0.68"/>
<circle cx="394.501" cy="398.183" r="2.61252" fill="#08AA6E" fill-opacity="0.68"/>
<circle cx="90.045" cy="367.826" r="2.61252" fill="#08AA6E"/>
<circle cx="149.61" cy="101.001" r="2.61252" fill="#08AA6E" fill-opacity="0.68"/>
<circle cx="257.177" cy="117.166" r="4.8479" stroke="#08AA6E" stroke-width="5"/>
<circle cx="28.3891" cy="330.902" r="5.33755" stroke="#08AA6E" stroke-width="5"/>
<circle cx="128.013" cy="315.574" r="4.29254" stroke="#08AA6E" stroke-width="5"/>
<circle cx="6.79254" cy="240.335" r="4.29254" stroke="#08AA6E" stroke-width="5"/>
<circle cx="351.883" cy="300.048" r="4.8479" stroke="#08AA6E" stroke-opacity="0.53" stroke-width="5"/>
<circle cx="62.7004" cy="156.212" r="3.07337" stroke="#08AA6E" stroke-opacity="0.46" stroke-width="5"/>
<circle cx="322.036" cy="209.681" r="5.33755" stroke="#E5ECF0" stroke-width="5"/>
<path d="M177.722 407H160.667L169.533 371.47H151.21C149.439 371.469 147.693 371.053 146.111 370.256C144.53 369.459 143.156 368.302 142.1 366.877C141.044 365.453 140.335 363.802 140.03 362.054C139.726 360.307 139.833 358.512 140.344 356.813L157.373 300.409H199.343L186.043 335.939H203.879C205.908 335.941 207.899 336.493 209.64 337.537C211.381 338.581 212.807 340.079 213.767 341.87C214.726 343.661 215.183 345.679 215.089 347.71C214.995 349.741 214.354 351.708 213.233 353.403L177.722 407Z" fill="#08AA6E"/>
<path d="M312.109 227.581C306.164 227.581 300.219 228.572 294.274 231.544C296.256 227.581 297.246 222.627 297.246 217.673C297.246 195.875 279.412 178.04 257.614 178.04C248.696 178.04 241.76 181.013 234.825 184.976C224.916 147.325 190.238 118.591 148.623 118.591C99.0821 118.591 59.4493 158.224 59.4493 207.765C59.4493 211.728 59.4493 215.691 60.4401 218.664C56.4768 217.673 53.5043 217.673 49.5411 217.673C21.7981 217.673 0 239.471 0 267.214C0 294.957 21.7981 316.755 49.5411 316.755H312.109C336.879 316.755 356.696 296.939 356.696 272.168C356.696 247.398 336.879 227.581 312.109 227.581Z" fill="#E5ECF0"/>
<path d="M224.155 280.634C222.97 281.785 221.391 282.367 219.861 282.346C218.33 282.324 216.768 281.698 215.617 280.514L132.227 194.77C129.885 192.361 129.938 188.576 132.347 186.234C134.757 183.892 138.543 183.945 140.885 186.354L155.34 201.216C179.069 192.408 206.256 198.428 224.046 216.679C224.403 217.047 224.761 217.414 225.117 217.822C227.379 220.27 227.245 224.094 224.796 226.355C223.612 227.466 222.114 228.009 220.584 227.988C218.973 227.965 217.411 227.299 216.22 226.074L215.346 225.175C202.163 211.62 182.659 206.392 164.709 210.973L178.806 225.468C188.228 225.761 197.197 229.632 203.789 236.41C206.132 238.779 206.078 242.644 203.669 244.946C202.484 246.098 200.945 246.68 199.415 246.659L224.194 272.137C226.536 274.546 226.483 278.371 224.074 280.673L224.155 280.634ZM177.968 253.566C173.538 253.504 169.862 257.077 169.8 261.506C169.738 265.935 173.312 269.61 177.742 269.672C182.172 269.734 185.848 266.162 185.91 261.732C185.972 257.303 182.398 253.629 177.968 253.566ZM154.07 234.262C153.58 234.698 153.091 235.134 152.601 235.611C150.192 237.913 150.138 241.738 152.481 244.147C153.632 245.331 155.195 245.957 156.725 245.979C158.256 246 159.835 245.418 161.019 244.267C161.346 243.949 161.673 243.632 161.999 243.354C164.527 241.175 164.782 237.353 162.602 234.825C160.422 232.298 156.599 232.042 154.07 234.222L154.07 234.262ZM134.088 214.329C133.68 214.685 133.312 215.043 132.945 215.4C132.577 215.757 132.209 216.155 131.841 216.512C129.512 218.896 129.539 222.722 131.923 225.051C133.075 226.195 134.557 226.779 136.088 226.801C137.699 226.824 139.279 226.201 140.504 225.01L142.342 223.224C144.79 220.963 144.965 217.139 142.703 214.691C140.441 212.243 136.617 212.068 134.168 214.33L134.088 214.329Z" fill="#08AA6E"/>
<path d="M36.0589 187.987L26.7744 202.532" stroke="#E5ECF0" stroke-width="2" stroke-linecap="round"/>
<path d="M293.444 95.1226L284.16 109.667" stroke="#E5ECF0" stroke-width="2" stroke-linecap="round"/>
<path d="M23.468 189.493L40.309 200.244" stroke="#E5ECF0" stroke-width="2" stroke-linecap="round"/>
<path d="M280.853 96.6284L297.694 107.379" stroke="#E5ECF0" stroke-width="2" stroke-linecap="round"/>
</svg>
