<svg xmlns="http://www.w3.org/2000/svg" fill-rule="evenodd" stroke-linejoin="round" stroke-miterlimit="2" clip-rule="evenodd" viewBox="0 0 32 32" id="stethoscope"><rect width="32" height="32" fill="none"></rect><path fill="#747474" d="M24.5 15.5c-.796 0-1.559.316-2.121.879-.563.562-.879 1.325-.879 2.121 0 2.14 0 5.227 0 7.5 0 .663-.263 1.299-.732 1.768-.469.469-1.105.732-1.768.732-1.554 0-3.446 0-5 0-1.381 0-2.5-1.119-2.5-2.5l0-3.5c0-.276-.224-.5-.5-.5-.276 0-.5.224-.5.5l0 3.5c0 1.933 1.567 3.5 3.5 3.5 1.554 0 3.446 0 5 0 .928 0 1.819-.369 2.475-1.025.656-.657 1.025-1.547 1.025-2.475 0-2.273 0-5.36 0-7.5 0-.53.211-1.039.586-1.414.375-.375.884-.586 1.414-.586 1.105 0 2 .895 2 2 0 0 0 1.5 0 1.5 0 .276.224.5.5.5.276 0 .5-.224.5-.5l0-1.5c0-1.657-1.343-3-3-3zM18.5 12l0-7c0-1.381-1.119-2.5-2.5-2.5-.784 0-1.5 0-1.5 0-.276 0-.5.224-.5.5 0 .276.224.5.5.5 0 0 .716 0 1.5 0 .828 0 1.5.672 1.5 1.5l0 7c0 .276.224.5.5.5.276 0 .5-.224.5-.5zM4.5 12l0-7c0-.828.672-1.5 1.5-1.5l1.5 0c.276 0 .5-.224.5-.5 0-.276-.224-.5-.5-.5 0 0-.716 0-1.5 0-1.381 0-2.5 1.119-2.5 2.5l0 7c0 .276.224.5.5.5.276 0 .5-.224.5-.5z"></path><path fill="#6adabe" d="M9.5,20.368l0,2.132c0,0.276 0.224,0.5 0.5,0.5l2,0c0.276,0 0.5,-0.224 0.5,-0.5l0,-2.132c3.977,-0.71 7,-4.189 7,-8.368c0,-0.276 -0.224,-0.5 -0.5,-0.5l-2,-0c-0.276,0 -0.5,0.224 -0.5,0.5c0,3.036 -2.464,5.5 -5.5,5.5c-3.036,0 -5.5,-2.464 -5.5,-5.5c0,-0.276 -0.224,-0.5 -0.5,-0.5l-2,-0c-0.276,0 -0.5,0.224 -0.5,0.5c0,4.179 3.023,7.658 7,8.368l0,-0Z"></path><circle cx="27" cy="22" r="2.5" fill="#e7e7e7"></circle><path fill="#747474" d="M27,19.5c-1.38,-0 -2.5,1.12 -2.5,2.5c0,1.38 1.12,2.5 2.5,2.5c1.38,0 2.5,-1.12 2.5,-2.5c0,-1.38 -1.12,-2.5 -2.5,-2.5Zm0,1c0.828,-0 1.5,0.672 1.5,1.5c0,0.828 -0.672,1.5 -1.5,1.5c-0.828,0 -1.5,-0.672 -1.5,-1.5c0,-0.828 0.672,-1.5 1.5,-1.5Z"></path></svg>